<?xml version="1.0"?><svg width="2000" height="1000" xmlns="http://www.w3.org/2000/svg" xmlns:xlink="http://www.w3.org/1999/xlink">
 <title>London Skyline</title>
 <defs>
  <linearGradient id="linearGradient5134">
   <stop id="stop5136" offset="0" stop-color="#6c94b1"/>
   <stop id="stop5138" offset="1" stop-opacity="0" stop-color="#b3b3b3"/>
  </linearGradient>
  <linearGradient x1="-1341.3817" y1="1057.3428" x2="-1339.9675" y2="919.75873" id="linearGradient5140" xlink:href="#linearGradient5134" gradientUnits="userSpaceOnUse" gradientTransform="matrix(0.5864842,0,0,0.5864842,-921.94545,345.73805)" spreadMethod="pad"/>
  <linearGradient x1="-1341.3817" y1="1057.3428" x2="-1339.9675" y2="919.75873" id="linearGradient3456" xlink:href="#linearGradient5134" gradientUnits="userSpaceOnUse" gradientTransform="matrix(0.5864842,0,0,0.5864842,-921.94545,345.73805)" spreadMethod="pad"/>
  <linearGradient x1="-1341.3817" y1="1057.3428" x2="-1339.9675" y2="919.75873" id="linearGradient3710" xlink:href="#linearGradient5134" gradientUnits="userSpaceOnUse" gradientTransform="matrix(0.5864842,0,0,0.5864842,1307.5959,-473.67961)" spreadMethod="pad"/>
 </defs>
 <g>
  <title>Layer 1</title>
  <g opacity="0.89" id="layer7" display="inline">
   <g id="g12775">
    <path d="m599.997253,264.751343l3.336304,0.096802l2.920837,-20.865967l1.354736,-7.55249l-1.910461,-0.178528l-0.179871,-1.595398l2.394592,-0.105286l1.885437,-15.15332l0.881897,-8.319702l0.766907,8.510803l1.976807,14.965271l1.913574,0.091125l0.200195,1.723145l-1.961975,-0.188354l5.48114,43.489075l0.380127,301.423462l0,0l-72.567078,-0.01001l0,-301.43396l5.575256,-44.244324l-1.732666,0.206299l0.141296,-1.476013l1.749146,-0.181396l1.735168,-11.831909l1.085938,-9.924133l0.61853,9.993225l1.666016,11.242737l1.74292,0.159058l-0.071289,1.198914l-1.446777,0.19342l1.739685,8.977417l5.372009,20.742493l3.330017,-0.032227l15.230652,-69.804749l16.39093,69.885132l0,-0.00061z" id="path2236" stroke-width="2" stroke="#000000" fill-rule="evenodd" fill="#000000"/>
    <path d="m1048.878906,264.397644l4.613281,0l2.921265,-21.059021l1.354736,-7.552979l-1.910767,-0.178345l-0.17981,-1.595886l2.394409,-0.104675l1.885132,-15.153076l0.881958,-8.319885l0.767334,8.510315l1.976685,14.966431l1.913696,0.090149l0.200073,1.722961l-1.962402,-0.18811l5.481689,43.489441l0.379761,301.423096l0,0l-72.567261,-0.010437l0,-301.433167l5.575684,-44.24469l-1.733276,0.206238l0.141907,-1.475342l1.749084,-0.181396l1.734741,-11.832703l1.086304,-9.924255l0.618713,9.993469l1.665955,11.242615l1.742859,0.159485l-0.07135,1.198669l-1.447388,0.193176l1.740051,8.9776l4.595947,21.677185l4.281433,0.033081l15.055664,-70.804932l15.113892,70.174988l0,0z" id="path7339" stroke-width="2" stroke="#000000" fill-rule="evenodd" fill="#000000"/>
    <path d="m997.141785,328.977478l-172.132874,0.065308l0,-4.254944c0,0 1.051514,-8.57605 -3.104919,-8.124573c0.150024,-0.064087 -3.75592,-0.773926 -3.404968,7.027771l-8.363342,-0.128296l-0.100098,-6.641663c0,0 5.70874,-8.639709 -1.953003,-11.734802c-3.890198,2.024109 -3.862305,6.804321 -1.605408,11.088318c1.068604,2.028931 0.406311,5.211365 0.403931,7.416443l-8.513428,0.065125c0,0 0.269775,-6.97345 -2.102905,-6.963623c0,0 -5.253906,-1.713135 -4.051758,10.021973l-173.674438,0l0,33.07428l387.101135,0l0,-31.003235l-8.497925,0.091553l0,0.000366z" id="path7342" stroke-width="2" stroke="#000000" fill-rule="evenodd" fill="#000000"/>
    <g id="g13443" display="inline">
     <path d="m552.48822,362.125732c-110.704132,142.334351 -166.100464,208.267822 -307.734375,213.935547c0,0 -110.895248,8.165161 -173.086342,-52.678711c0,0.364563 0,0.364563 0,0.364563" id="path8345" stroke-miterlimit="4" stroke-width="2" stroke="#000000" fill="none"/>
     <path d="m550.776306,354.699707c0,0 -157.714569,188.620483 -306.484741,210.338562c0,0 -77.397415,8.437012 -174.747742,-54.49231" id="path8336" stroke-miterlimit="4" stroke-width="2" stroke="#000000" fill="none"/>
     <path d="m510.123535,399.134888l-11.818481,31.980591" id="path11254" stroke-width="2" stroke="#000000" fill="none"/>
     <path d="m492.295776,414.093994l24.037231,-2.063843" id="path11256" stroke-width="2" stroke="#000000" fill="none"/>
     <path d="m495.500763,415.125244l-8.813721,27.854736l0,0l0.801392,-0.77417" id="path11258" stroke-width="2" stroke="#000000" fill="none"/>
     <path d="m450.531464,457.0354l24.838257,-2.321472" id="path11262" stroke-width="2" stroke="#000000" fill="none"/>
     <path d="m445.423431,460.775513l-23.035431,47.197021" id="path11264" stroke-width="2" stroke="#000000" fill="none"/>
     <path d="m418.081238,483.857788l33.65213,2.321228" id="path11266" stroke-width="2" stroke="#000000" fill="none"/>
     <path d="m413.674377,485.405762l-22.434265,48.744324" id="path11268" stroke-width="2" stroke="#000000" fill="none"/>
     <path d="m389.036346,502.169312l29.44577,14.443054" id="path11270" stroke-width="2" stroke="#000000" fill="none"/>
     <path d="m383.8284,506.81189l-23.436127,44.618347" id="path11272" stroke-width="2" stroke="#000000" fill="none"/>
     <path d="m358.789825,521.255127l29.846008,17.021606" id="path11274" stroke-width="2" stroke="#000000" fill="none"/>
     <path d="m355.985687,524.09198l-25.639618,38.943909" id="path11276" stroke-width="2" stroke="#000000" fill="none"/>
     <path d="m329.344452,538.018921l26.841461,15.216736" id="path11278" stroke-width="2" stroke="#000000" fill="none"/>
     <path d="m320.130157,543.177368l-19.830688,28.111877" id="path11280" stroke-width="2" stroke="#000000" fill="none"/>
     <path d="m298.096039,551.68811l23.035767,13.153381" id="path11282" stroke-width="2" stroke="#000000" fill="none"/>
     <path d="m289.683167,555.814575c-0.801025,0 -18.428192,18.56958 -18.428192,18.56958" id="path11284" stroke-width="2" stroke="#000000" fill="none"/>
     <path d="m270.053101,560.199402l19.630066,12.121338" id="path11286" stroke-width="2" stroke="#000000" fill="none"/>
     <path d="m264.24411,563.552185l-14.42218,13.411011" id="path11288" stroke-width="2" stroke="#000000" fill="none"/>
     <path d="m247.81871,566.130676l20.431412,11.090393" id="path11290" stroke-miterlimit="4" stroke-width="2" stroke="#000000" fill="none"/>
     <path d="m508.22052,417.5755l0,181.051758" id="path12267" stroke-miterlimit="4" stroke-width="2" stroke="#000000" fill="none"/>
     <path d="m478.173615,428.923523l0,170.735657" id="path12269" stroke-miterlimit="4" stroke-width="2" stroke="#000000" fill="none"/>
     <path d="m448.127777,453.166748l0,146.234619" id="path12271" stroke-miterlimit="4" stroke-width="2" stroke="#000000" fill="none"/>
     <path d="m417.279877,479.989136l0,118.638123" id="path12273" stroke-miterlimit="4" stroke-width="2" stroke="#000000" fill="none"/>
     <path d="m386.031891,502.169312l0,96.457947" id="path12275" stroke-miterlimit="4" stroke-width="2" stroke="#000000" fill="none"/>
     <path d="m357.187622,518.676086l0,79.435486l0.77417,-0.575684l0.026764,0.059814" id="path12277" stroke-miterlimit="4" stroke-width="2" stroke="#000000" fill="none"/>
     <path d="m326.740479,535.182068l0,63.44519" id="path12279" stroke-miterlimit="4" stroke-width="2" stroke="#000000" fill="none"/>
     <path d="m297.495361,548.59314l0,51.06604" id="path12281" stroke-miterlimit="4" stroke-width="2" stroke="#000000" fill="none"/>
     <path d="m267.048309,559.425537l0,40.749268" id="path12283" stroke-miterlimit="4" stroke-width="2" stroke="#000000" fill="none"/>
     <path d="m479.876831,429.825928l22.334106,-1.80481" id="path12376" stroke-width="2" stroke="#000000" fill="none"/>
     <path d="m471.36377,437.047852l-18.428558,43.070618" id="path12378" stroke-width="2" stroke="#000000" fill="none"/>
     <path d="m209.158997,597.912292l0,-35.333069" id="path7591" stroke-miterlimit="4" stroke-width="2" stroke="#000000" fill="none"/>
     <path d="m177.309906,597.912292l0,-40.491211" id="path7593" stroke-miterlimit="4" stroke-width="2" stroke="#000000" fill="none"/>
     <path d="m147.263748,597.138672l0,-48.744568" id="path7595" stroke-miterlimit="4" stroke-width="2" stroke="#000000" fill="none"/>
     <path d="m117.016907,595.849731l0,-59.061279l0.801384,0" id="path7597" stroke-miterlimit="4" stroke-width="2" stroke="#000000" fill="none"/>
     <path d="m87.771767,594.302734l0,-72.988831" id="path7599" stroke-miterlimit="4" stroke-width="2" stroke="#000000" fill="none"/>
     <path d="m210.160614,573.153809l23.636459,-6.963318" id="path8572" stroke-width="2" stroke="#000000" fill="none"/>
     <path d="m210.360901,562.063599l25.23909,14.184814" id="path8574" stroke-width="2" stroke="#000000" fill="none"/>
     <path d="m178.5121,570.058655l32.850418,-5.674194" id="path8576" stroke-width="2" stroke="#000000" fill="none"/>
     <path d="m178.912582,557.163025l30.847549,19.601196l0,-0.257996l0,0" id="path8578" stroke-width="2" stroke="#000000" fill="none"/>
     <path d="m147.664215,564.38446l28.844666,-6.189453" id="path8580" stroke-width="2" stroke="#000000" fill="none"/>
     <path d="m148.064713,548.909912l27.642838,23.212036" id="path8582" stroke-width="2" stroke="#000000" fill="none"/>
     <path d="m117.618057,555.357666l29.245193,-7.221375" id="path8584" stroke-width="2" stroke="#000000" fill="none"/>
     <path d="m117.818291,536.272766l28.844307,28.369568l0,0" id="path8586" stroke-width="2" stroke="#000000" fill="none"/>
     <path d="m88.172256,539.625549l28.043327,-3.095337" id="path8588" stroke-width="2" stroke="#000000" fill="none"/>
     <path d="m88.973579,521.056091l26.841522,32.496216" id="path8590" stroke-width="2" stroke="#000000" fill="none"/>
    </g>
    <g id="g12056" display="inline">
     <g id="g11860" display="inline">
      <path d="m1062.13147,362.973511c110.704834,142.335022 166.101196,208.268005 307.734375,213.935669c0,0 110.895264,8.165894 173.086792,-52.678833" id="path11862" stroke-miterlimit="4" stroke-width="2" stroke="#000000" fill="none"/>
      <path d="m1063.844238,355.548523c0,0 157.714111,188.61969 306.484253,210.338501c0,0 77.397949,8.437317 174.747681,-54.492249" id="path11864" stroke-miterlimit="4" stroke-width="2" stroke="#000000" fill="none"/>
      <path d="m1104.496826,399.983704l11.817871,31.980347" id="path11866" stroke-width="2" stroke="#000000" fill="none"/>
      <path d="m1122.324341,414.9422l-24.036987,-2.063293" id="path11868" stroke-width="2" stroke="#000000" fill="none"/>
      <path d="m1119.119385,415.973694l8.813354,27.854065l0,0l-0.801025,-0.773315" id="path11870" stroke-width="2" stroke="#000000" fill="none"/>
      <path d="m1164.088623,457.884216l-24.838257,-2.321167" id="path11872" stroke-width="2" stroke="#000000" fill="none"/>
      <path d="m1169.196655,461.623474l23.035522,47.197632" id="path11874" stroke-width="2" stroke="#000000" fill="none"/>
      <path d="m1196.538818,484.706604l-33.651978,2.321472" id="path11876" stroke-width="2" stroke="#000000" fill="none"/>
      <path d="m1200.945435,486.25415l22.434937,48.744385" id="path11878" stroke-width="2" stroke="#000000" fill="none"/>
      <path d="m1225.583252,503.018188l-29.44519,14.44281" id="path11880" stroke-width="2" stroke="#000000" fill="none"/>
      <path d="m1230.791382,507.660278l23.436035,44.618347" id="path11882" stroke-width="2" stroke="#000000" fill="none"/>
      <path d="m1255.8302,522.103516l-29.846436,17.021423" id="path11884" stroke-width="2" stroke="#000000" fill="none"/>
      <path d="m1258.634521,524.940186l25.639526,38.944519" id="path11886" stroke-width="2" stroke="#000000" fill="none"/>
      <path d="m1285.275757,538.867371l-26.841553,15.216431" id="path11888" stroke-width="2" stroke="#000000" fill="none"/>
      <path d="m1294.490112,544.02594l19.830078,28.111023" id="path11890" stroke-width="2" stroke="#000000" fill="none"/>
      <path d="m1316.523315,552.536072l-23.0354,13.154236" id="path11892" stroke-width="2" stroke="#000000" fill="none"/>
      <path d="m1324.937012,556.66333c0.800781,0 18.427856,18.569031 18.427856,18.569031" id="path11894" stroke-width="2" stroke="#000000" fill="none"/>
      <path d="m1344.567017,561.047363l-19.630005,12.121338" id="path11896" stroke-width="2" stroke="#000000" fill="none"/>
      <path d="m1350.375977,564.400146l14.422119,13.411072" id="path11898" stroke-width="2" stroke="#000000" fill="none"/>
      <path d="m1366.80188,566.978821l-20.432251,11.09021" id="path11900" stroke-miterlimit="4" stroke-width="2" stroke="#000000" fill="none"/>
      <path d="m1106.400024,418.4245l0,181.051514" id="path11902" stroke-miterlimit="4" stroke-width="2" stroke="#000000" fill="none"/>
      <path d="m1136.446167,429.772095l0,170.735474" id="path11904" stroke-miterlimit="4" stroke-width="2" stroke="#000000" fill="none"/>
      <path d="m1166.492676,454.014771l0,146.234558" id="path11906" stroke-miterlimit="4" stroke-width="2" stroke="#000000" fill="none"/>
      <path d="m1197.339966,480.837952l0,118.638062" id="path11908" stroke-miterlimit="4" stroke-width="2" stroke="#000000" fill="none"/>
      <path d="m1228.588257,503.018188l0,96.457825" id="path11910" stroke-miterlimit="4" stroke-width="2" stroke="#000000" fill="none"/>
      <path d="m1257.432495,519.523865l0,79.436523l-0.774414,-0.575928l-0.026611,0.059265" id="path11912" stroke-miterlimit="4" stroke-width="2" stroke="#000000" fill="none"/>
      <path d="m1287.879517,536.030029l0,63.445984" id="path11914" stroke-miterlimit="4" stroke-width="2" stroke="#000000" fill="none"/>
      <path d="m1317.124634,549.441467l0,51.066101" id="path11916" stroke-miterlimit="4" stroke-width="2" stroke="#000000" fill="none"/>
      <path d="m1347.571899,560.273682l0,40.749695" id="path11918" stroke-miterlimit="4" stroke-width="2" stroke="#000000" fill="none"/>
      <path d="m1134.743652,430.674438l-22.334595,-1.805481" id="path11920" stroke-width="2" stroke="#000000" fill="none"/>
      <path d="m1143.256714,437.895874l18.428223,43.071472" id="path11922" stroke-width="2" stroke="#000000" fill="none"/>
      <path d="m1405.461182,598.761169l0,-35.333252" id="path11924" stroke-miterlimit="4" stroke-width="2" stroke="#000000" fill="none"/>
      <path d="m1437.310181,598.761169l0,-40.491272" id="path11926" stroke-miterlimit="4" stroke-width="2" stroke="#000000" fill="none"/>
      <path d="m1467.356567,597.987488l0,-48.744568" id="path11928" stroke-miterlimit="4" stroke-width="2" stroke="#000000" fill="none"/>
      <path d="m1497.603271,596.697937l0,-59.060913l-0.80188,0" id="path11930" stroke-miterlimit="4" stroke-width="2" stroke="#000000" fill="none"/>
      <path d="m1526.848145,595.150574l0,-72.987854" id="path11932" stroke-miterlimit="4" stroke-width="2" stroke="#000000" fill="none"/>
      <path d="m1404.459595,574.002258l-23.636475,-6.963989" id="path11934" stroke-width="2" stroke="#000000" fill="none"/>
      <path d="m1404.258789,562.912048l-25.238892,14.184753" id="path11936" stroke-width="2" stroke="#000000" fill="none"/>
      <path d="m1436.10791,570.90686l-32.85022,-5.673584" id="path11938" stroke-width="2" stroke="#000000" fill="none"/>
      <path d="m1435.707397,558.011719l-30.847412,19.600891l0,-0.257996l0,0" id="path11940" stroke-width="2" stroke="#000000" fill="none"/>
      <path d="m1466.955933,565.233276l-28.845093,-6.189941" id="path11942" stroke-width="2" stroke="#000000" fill="none"/>
      <path d="m1466.554932,549.758789l-27.642334,23.211487" id="path11944" stroke-width="2" stroke="#000000" fill="none"/>
      <path d="m1497.002075,556.206238l-29.244995,-7.22113" id="path11946" stroke-width="2" stroke="#000000" fill="none"/>
      <path d="m1496.801392,537.121582l-28.844238,28.369507l0,0" id="path11948" stroke-width="2" stroke="#000000" fill="none"/>
      <path d="m1526.447632,540.474365l-28.043213,-3.095337" id="path11950" stroke-width="2" stroke="#000000" fill="none"/>
      <path d="m1525.646362,521.904236l-26.841187,32.49707" id="path11952" stroke-width="2" stroke="#000000" fill="none"/>
     </g>
     <path d="m1586.971558,511.607117l101.148438,78.546875" id="path11954" stroke-miterlimit="4" stroke-width="2" stroke="#000000" fill="none"/>
     <path d="m1582.863647,515.983948l95.842285,76.219849" id="path11956" stroke-miterlimit="4" stroke-width="2" stroke="#000000" fill="none"/>
    </g>
    <path d="m247.852081,602.038818l-0.070953,-24.619751c0,0 -3.753036,-0.821167 -3.540894,-2.644165c0.21257,-1.823853 2.341187,-0.501892 2.974564,-2.736023c2.031296,-7.164124 -0.991333,-12.400818 -6.410721,-12.512512c-5.986099,0.02533 -8.654633,5.398499 -6.623337,12.562683c0.632996,2.234436 2.761612,0.911438 2.974182,2.735901c0.21257,1.823547 -3.540863,2.643921 -3.540863,2.643921l-0.177032,23.298157l0,1.367615l14.415054,-0.095825l0,0z" id="path2241" stroke-width="2" stroke="#000000" fill-rule="evenodd" fill="#000000"/>
    <path d="m1380.627319,601.934631l-0.070923,-24.619568c0,0 -3.753296,-0.82135 -3.541504,-2.645447c0.212646,-1.822998 2.341675,-0.501221 2.97522,-2.735046c2.03064,-7.165039 -0.991821,-12.401001 -6.411011,-12.512207c-5.986328,0.024292 -8.654907,5.397827 -6.623047,12.562683c0.633057,2.233582 2.761475,0.91156 2.973755,2.735229c0.213135,1.823364 -3.540527,2.644653 -3.540527,2.644653l-0.17688,23.298035l0,1.367004l14.414917,-0.095337l0,0z" id="path2249" stroke-width="2" stroke="#000000" fill-rule="evenodd" fill="#000000"/>
    <path d="m23.931591,602.228821l502.386158,0.092468l0.003235,-3.668701l0,0c-0.04364,0 -446.910484,-1.21759 -502.417873,-1.265076l0.02813,4.841309l0.000351,0z" id="path10593" stroke-miterlimit="4" stroke-width="2" stroke="#000000" fill-rule="evenodd" fill="#000000"/>
    <path d="m23.976191,579.960327l503.252935,0l0,12.300842l-503.250126,0l-0.00279,-12.300842l0,0l-0.000019,0z" id="path2253" stroke-miterlimit="4" stroke-width="2" stroke="#000000" fill-rule="evenodd" fill="#000000"/>
    <g id="g2268" display="inline">
     <path d="m1089.161743,580.730591l897.724609,0l0,12.765442l-898.633179,0l0.908081,-12.765442l0.000488,0z" id="path2264" stroke-width="2" stroke="#000000" fill-rule="evenodd" fill="#000000"/>
     <path d="m1985.562622,598.840698c-0.080322,0 -899.824097,-0.459167 -899.824097,-0.459167l0.072144,4.266235l899.745117,0l0.004395,-3.807068l0.002441,0z" id="path2266" stroke-width="2" stroke="#000000" fill-rule="evenodd" fill="#000000"/>
    </g>
    <path d="m975.140442,580.116577l117.58136,0l0,85.626282l-118.182434,0l0.601074,-85.626282z" id="path2276" stroke-width="2" stroke="#000000" fill-rule="evenodd" fill="#000000"/>
    <path d="m524.645386,580.116577l117.581665,0l0,85.626282l-118.182617,0l0.600952,-85.626282z" id="path2280" stroke-width="2" stroke="#000000" fill-rule="evenodd" fill="#000000"/>
    <g id="g4241" display="inline">
     <path d="m632.044128,587.174133l151.282654,-97.079407l4.495483,11.48999l-151.376465,97.056702l-4.401672,-11.467285z" id="path2291" stroke-width="2" stroke="#000000" fill-rule="evenodd" fill="#000000"/>
     <path d="m632.93396,645.344788c0.109985,0.024475 91.941162,-97.867126 152.752014,-137.891479l4.248047,-2.7948" id="path2296" stroke-miterlimit="4" stroke-width="2" stroke="#000000" fill="none"/>
     <path d="m649.014343,627.477417l-14.685303,-32.765259l27.571899,13.838196l-8.936035,-23.682007l26.119202,8.00592l-8.744629,-22.813477l24.250916,7.879761l-7.197021,-19.425781l22.828125,5.633667l-6.093323,-15.753113l18.935791,3.341919l-5.432617,-11.999939l17.290283,2.155701l-4.484436,-10.366943l15.010498,1.173279l-3.536255,-8.734375l13.681519,0.599182l-5.05188,-12.652405l0,0" id="path3270" stroke-miterlimit="4" stroke-width="2" stroke="#000000" fill="none"/>
    </g>
    <g id="g4247" display="inline">
     <path d="m982.99646,585.391907l-151.283081,-97.079834l-4.494995,11.490173l151.375854,97.056213l4.402222,-11.466553z" id="path4249" stroke-width="2" stroke="#000000" fill-rule="evenodd" fill="#000000"/>
     <path d="m982.106323,643.561951c-0.109741,0.024475 -91.941223,-97.867249 -152.752014,-137.890564l-4.247742,-2.796143" id="path4251" stroke-miterlimit="4" stroke-width="2" stroke="#000000" fill="none"/>
     <path d="m966.026184,625.695068l14.685303,-32.765137l-27.572144,13.837769l8.935974,-23.68158l-26.119141,8.005371l8.744873,-22.813293l-24.250916,7.879333l7.197021,-19.42511l-22.827881,5.633423l6.092712,-15.753723l-18.935486,3.342773l5.432373,-12.000183l-17.289856,2.155701l4.484558,-10.36676l-15.011047,1.172791l3.536255,-8.734436l-13.681274,0.599548l5.051514,-12.651794l0,0" id="path4253" stroke-miterlimit="4" stroke-width="2" stroke="#000000" fill="none"/>
    </g>
    <path d="m47.28204,409.962097c0.5509,-0.311829 0.98653,-1.138672 0.98653,-2.001099l0,0c0,-1.143005 -0.68232,-2.069885 -1.522621,-2.069885c-0.840309,0 -1.522247,0.92688 -1.522247,2.069885c0,0.89679 0.419857,1.661011 1.065849,1.994812l-0.152771,11.600281l-2.549171,0.048523l0,2.225586l0.95385,0c0,0 0.210423,3.381592 -0.290218,5.867981c-6.60886,22.17926 -12.71405,24.876404 -12.71405,24.876404l-7.448219,-0.09259l-3.594311,8.859619l-0.07378,30.387939l-3.828959,0.053406l-0.0527,6.824219l3.955439,0l0,71.171143l-4.39036,14.637817l0.14159,73.190186l0,0l60.359648,-0.002258l-0.141541,-74.149902l-4.531609,-14.638123l0,-70.210754l3.955482,0l-0.052704,-6.824585l-3.828995,-0.053589l-0.073784,-30.387756l-3.169197,-8.474304l-6.571678,-0.292419c0,0 -5.305542,-4.186707 -12.797344,-25.194153c-0.192551,-3.836548 0.021782,-5.56543 -0.012669,-5.5979l0,0l0.949978,0.015991l-0.017548,-2.287415l-2.58461,0l-0.447929,-11.544983l0.000648,-0.002075z" id="path12772" stroke-miterlimit="4" stroke-width="2" stroke="#000000" fill-rule="evenodd" fill="#000000"/>
    <path d="m1566.424194,409.962097c0.55127,-0.311829 0.986816,-1.138672 0.986816,-2.001099l0,0c0,-1.143005 -0.682129,-2.069885 -1.522095,-2.069885c-0.840332,0 -1.522705,0.92688 -1.522705,2.069885c0,0.89679 0.419678,1.661011 1.066284,1.994812l-0.152222,11.600281l-2.549805,0.048523l0,2.225586l0.953979,0c0,0 0.210327,3.381592 -0.289551,5.867981c-6.609131,22.17926 -12.714111,24.876404 -12.714111,24.876404l-7.448364,-0.09259l-3.59436,8.859619l-0.073486,30.387939l-3.828979,0.053406l-0.052612,6.824219l3.955078,0l0,71.171143l-4.390259,14.637817l0.141479,73.190186l0,0l60.359497,-0.002258l-0.140869,-74.149902l-4.532227,-14.638123l0,-70.210754l3.955566,0l-0.05249,-6.824585l-3.829468,-0.053589l-0.073608,-30.387756l-3.168945,-8.474304l-6.571655,-0.292419c0,0 -5.305176,-4.186707 -12.797119,-25.194153c-0.192871,-3.836548 0.022949,-5.56543 -0.016479,-5.5979l0,0l0.950806,0.015991l-0.017822,-2.287415l-2.584717,0l-0.448364,-11.544983l0.002808,-0.002075z" id="path12108" stroke-miterlimit="4" stroke-width="2" stroke="#000000" fill-rule="evenodd" fill="#000000"/>
   </g>
  </g>
 </g>
</svg>